#!OML:ASF F:\VICON\USERDATA\INSTALL\rory3\rory3.ASF
:FULLY-SPECIFIED
:DEGREES
160
root 0.826143 18.2568 -13.696 20.415 -4.99646 3.6416
lowerback 20.7277 0.485335 -2.96855
upperback 2.79146 -0.156892 -1.31394
thorax -8.55381 -0.00321403 0.307336
lowerneck -12.3484 -2.58587 -7.7991
upperneck -1.31693 -2.60414 8.81072
head 1.82154 -1.03693 3.80342
rclavicle -2.03754e-015 6.73383e-015
rhumerus -38.2777 0.677995 -77.1457
rradius 27.0108
rwrist 12.6854
rhand -28.8578 4.11981
rfingers 7.12502
rthumb -2.21435 -25.8484
lclavicle -2.03754e-015 6.73383e-015
lhumerus -42.527 14.9867 65.7588
lradius 18.185
lwrist -9.15039
lhand -21.4783 23.8418
lfingers 7.12502
lthumb 4.9125 53.7649
rfemur -41.5331 17.0081 5.74435
rtibia 41.8558
rfoot -21.6948 -17.3058
rtoes -3.55705
lfemur -37.7175 -0.371819 -24.0051
ltibia 38.4179
lfoot -18.3742 7.48073
ltoes -8.56292
161
root 0.827217 18.2351 -13.6748 20.6345 -4.96802 3.63768
lowerback 20.8237 0.489014 -2.93813
upperback 2.81749 -0.147454 -1.30191
thorax -8.57726 0.000578052 0.300306
lowerneck -12.3302 -2.63447 -7.86835
upperneck -1.63452 -2.64657 8.89045
head 1.7302 -1.05798 3.8382
rclavicle -2.93207e-015 -1.98785e-016
rhumerus -38.8409 0.419157 -76.8219
rradius 26.5009
rwrist 13.0377
rhand -28.9452 3.79218
rfingers 7.12502
rthumb -2.29875 -26.1752
lclavicle -2.93207e-015 -1.98785e-016
lhumerus -43.4013 15.3504 64.844
lradius 17.8255
lwrist -9.9038
lhand -21.0675 24.184
lfingers 7.12502
lthumb 5.30917 54.0975
rfemur -41.8656 16.8432 5.71361
rtibia 42.1875
rfoot -21.9313 -17.1392
rtoes -3.35695
lfemur -38.1086 -0.350834 -24.015
ltibia 38.8235
lfoot -18.6407 7.31571
ltoes -7.96423
162
root 0.825001 18.2121 -13.6564 20.7453 -4.92884 3.76013
lowerback 21.0367 0.503524 -3.06203
upperback 2.899 -0.163719 -1.31054
thorax -8.60145 -0.00357903 0.365766
lowerneck -12.4346 -2.6721 -7.91967
upperneck -1.88861 -2.67074 8.9363
head 1.67442 -1.06775 3.85991
rclavicle -3.35449e-015 2.50966e-015
rhumerus -39.3504 0.118171 -76.4684
rradius 26.0559
rwrist 13.6369
rhand -28.8474 3.12206
rfingers 7.12502
rthumb -2.2043 -26.8463
lclavicle -3.35449e-015 2.50966e-015
lhumerus -44.1493 16.0043 63.7508
lradius 17.3442
lwrist -10.9041
lhand -20.9245 24.2495
lfingers 7.12502
lthumb 5.44723 54.1595
rfemur -42.1385 16.7141 5.57788
rtibia 42.5678
rfoot -22.1744 -17.0559
rtoes -3.25935
lfemur -38.4273 -0.389695 -24.1385
ltibia 39.2699
lfoot -18.8584 7.23378
ltoes -7.95884
163
root 0.822409 18.1883 -13.6359 20.9378 -5.00193 3.7779
lowerback 21.0881 0.583602 -3.1447
upperback 3.00848 -0.0768026 -1.30375
thorax -8.51075 0.0383638 0.3966
lowerneck -12.5195 -2.73773 -7.98759
upperneck -2.22544 -2.72711 8.99083
head 1.59414 -1.0942 3.88574
rclavicle 7.70291e-016 -7.25564e-015
rhumerus -39.7895 -0.346081 -76.0331
rradius 25.6674
rwrist 14.1642
rhand -28.7671 2.70913
rfingers 7.12502
rthumb -2.12678 -27.26
lclavicle 7.70291e-016 -7.25564e-015
lhumerus -44.8031 16.4351 62.8649
lradius 17.0122
lwrist -11.5468
lhand -20.8366 24.2012
lfingers 7.12502
lthumb 5.53216 54.109
rfemur -42.5802 16.6593 5.47844
rtibia 43.0332
rfoot -22.4788 -16.9039
rtoes -2.97327
lfemur -38.8459 -0.366359 -24.1702
ltibia 39.7714
lfoot -19.1591 7.19734
ltoes -7.87751
164
root 0.814938 18.1588 -13.6214 21.1653 -4.6511 3.80481
lowerback 21.2247 0.498515 -3.05194
upperback 3.088 -0.163125 -1.2377
thorax -8.49394 -0.00492785 0.439791
lowerneck -12.541 -2.77873 -8.02614
upperneck -2.65308 -2.75306 9.00519
head 1.47316 -1.10851 3.89704
rclavicle 6.65929e-015 1.63997e-015
rhumerus -40.2018 -0.85869 -75.5761
rradius 25.3786
rwrist 14.5189
rhand -28.533 2.31843
rfingers 7.12502
rthumb -1.90066 -27.6528
lclavicle 6.65929e-015 1.63997e-015
lhumerus -45.4419 16.7885 62.0825
lradius 16.8126
lwrist -11.97
lhand -20.7895 24.3385
lfingers 7.12502
lthumb 5.57762 54.2451
rfemur -42.9607 16.3138 5.55481
rtibia 43.6022
rfoot -22.8914 -16.7612
rtoes -2.44546
lfemur -39.3464 -0.557077 -24.0834
ltibia 40.32
lfoot -19.4068 6.99598
ltoes -7.56785
165
root 0.801335 18.1225 -13.6217 21.5244 -4.06887 3.9557
lowerback 21.4329 0.33726 -2.9772
upperback 3.0808 -0.360288 -1.2087
thorax -8.60798 -0.0981587 0.483748
lowerneck -12.6283 -2.82935 -7.92844
upperneck -2.97501 -2.81133 8.97326
head 1.39375 -1.13906 3.86922
rclavicle -1.15792e-014 -1.26725e-014
rhumerus -40.6978 -1.2303 -75.2997
rradius 25.1724
rwrist 14.6343
rhand -28.2388 1.9509
rfingers 7.12502
rthumb -1.61653 -28.0227
lclavicle -1.15792e-014 -1.26725e-014
lhumerus -45.9553 17.2347 61.0888
lradius 16.5018
lwrist -12.3858
lhand -20.5876 24.4885
lfingers 7.12502
lthumb 5.7725 54.3899
rfemur -43.5182 15.7198 5.58309
rtibia 44.2662
rfoot -23.2973 -16.7187
rtoes -2.26245
lfemur -40.0959 -0.851044 -24.0605
ltibia 40.9095
lfoot -19.5736 6.6597
ltoes -7.40559
